<?xml version="1.0" encoding="UTF-8" standalone="no"?>
<!-- Created with Inkscape (http://www.inkscape.org/) -->

<svg
   xmlns:dc="http://purl.org/dc/elements/1.1/"
   xmlns:cc="http://creativecommons.org/ns#"
   xmlns:rdf="http://www.w3.org/1999/02/22-rdf-syntax-ns#"
   xmlns:svg="http://www.w3.org/2000/svg"
   xmlns="http://www.w3.org/2000/svg"
   xmlns:xlink="http://www.w3.org/1999/xlink"
   xmlns:sodipodi="http://sodipodi.sourceforge.net/DTD/sodipodi-0.dtd"
   xmlns:inkscape="http://www.inkscape.org/namespaces/inkscape"
   width="35"
   height="90"
   id="svg2"
   version="1.1"
   inkscape:version="0.48.3.1 r9886"
   sodipodi:docname="axe.svg">
  <defs
     id="defs4">
    <linearGradient
       inkscape:collect="always"
       id="linearGradient3132">
      <stop
         style="stop-color:#2b0000;stop-opacity:1;"
         offset="0"
         id="stop3134" />
      <stop
         style="stop-color:#800000;stop-opacity:1"
         offset="1"
         id="stop3136" />
    </linearGradient>
    <radialGradient
       r="55.005203"
       fy="850.03461"
       fx="-212.85715"
       cy="850.03461"
       cx="-212.85715"
       gradientTransform="matrix(-0.96077828,-1.7721687,-0.77961295,0.67515297,563.801,106.49153)"
       gradientUnits="userSpaceOnUse"
       id="radialGradient4040"
       xlink:href="#linearGradient3132"
       inkscape:collect="always" />
  </defs>
  <sodipodi:namedview
     id="base"
     pagecolor="#ffffff"
     bordercolor="#666666"
     borderopacity="1.0"
     inkscape:pageopacity="0.0"
     inkscape:pageshadow="2"
     inkscape:zoom="2.8284271"
     inkscape:cx="84.993157"
     inkscape:cy="24.139726"
     inkscape:document-units="px"
     inkscape:current-layer="layer3"
     showgrid="false"
     inkscape:window-width="1366"
     inkscape:window-height="716"
     inkscape:window-x="0"
     inkscape:window-y="24"
     inkscape:window-maximized="1" />
  <metadata
     id="metadata7">
    <rdf:RDF>
      <cc:Work
         rdf:about="">
        <dc:format>image/svg+xml</dc:format>
        <dc:type
           rdf:resource="http://purl.org/dc/dcmitype/StillImage" />
        <dc:title />
      </cc:Work>
    </rdf:RDF>
  </metadata>
  <g
     inkscape:groupmode="layer"
     id="layer3"
     inkscape:label="mie"
     transform="translate(0,-962.3622)">
    <g
       id="g3922"
       transform="matrix(0.79281277,-0.96902695,0.96379252,0.7971186,-1068.8056,122.85797)"
       inkscape:transform-center-x="-32.310241"
       inkscape:transform-center-y="37.136995">
      <rect
         style="fill:#2b1100;fill-opacity:1;fill-rule:nonzero;stroke:#000000;stroke-width:0.99891162;stroke-linecap:butt;stroke-linejoin:miter;stroke-miterlimit:4;stroke-opacity:1;stroke-dasharray:none;stroke-dashoffset:0"
         id="rect4019"
         width="2.1390874"
         height="57.707264"
         x="869.07239"
         y="682.44952"
         transform="matrix(0.63527804,0.77228351,-0.77228351,0.63527804,0,0)" />
      <path
         style="fill:#666666;stroke:#000000;stroke-width:0.79912931px;stroke-linecap:butt;stroke-linejoin:miter;stroke-opacity:1"
         d="m -6.2471416,1133.2381 -9.1572044,7.5328 c 3.285317,2.1396 3.126903,5.4572 3.034096,8.7525 6.5684639,0 11.58699774,-1.4495 14.6747952,-11.8214 -3.4156441,-0.5133 -6.3469947,-1.0767 -8.5516868,-4.4639 z"
         id="path4021"
         inkscape:connector-curvature="0"
         sodipodi:nodetypes="ccccc" />
      <path
         sodipodi:nodetypes="ccccc"
         inkscape:connector-curvature="0"
         id="path4023"
         d="m -7.7502271,1131.59 -9.1572419,7.5326 c -1.348918,-3.4938 -4.557681,-3.8846 -7.73118,-4.3343 1.398691,-6.2861 3.852071,-10.8525 14.435517,-12.1124 -0.235057,3.3529 -0.319491,6.2505 2.4529049,8.9141 z"
         style="fill:#666666;stroke:#000000;stroke-width:0.79912931px;stroke-linecap:butt;stroke-linejoin:miter;stroke-opacity:1" />
      <g
         inkscape:transform-center-y="11.160755"
         inkscape:transform-center-x="7.6088803"
         transform="matrix(0.4218759,0.90665359,-0.90665359,0.4218759,986.16326,679.39915)"
         id="g3914">
        <g
           style="fill:#803300;stroke-width:1.08549774;stroke-miterlimit:4;stroke-dasharray:none"
           transform="matrix(-1.9238246,0.55400576,0.38263602,1.5096465,-529.43978,-494.14708)"
           id="g3908"
           inkscape:transform-center-x="1.9745618"
           inkscape:transform-center-y="11.675062">
          <path
             style="fill:#803300;fill-opacity:1;fill-rule:nonzero;stroke:#000000;stroke-width:0.56586003;stroke-linecap:butt;stroke-linejoin:miter;stroke-miterlimit:4;stroke-opacity:1;stroke-dasharray:none;stroke-dashoffset:0"
             d="m -54.55483,1041.0005 c 0.302566,6.0245 -0.547496,10.096 -2.424007,9.61 -2.161606,-0.5598 -2.895872,-3.181 -2.284842,-9.5366 0.499986,-5.2008 0.899808,-4.8483 2.200121,-4.8686 1.300313,-0.02 2.245417,-0.4477 2.508728,4.7952 z"
             id="path3910"
             inkscape:connector-curvature="0"
             sodipodi:nodetypes="sssss" />
          <path
             sodipodi:nodetypes="sssss"
             inkscape:connector-curvature="0"
             id="path3912"
             d="m -54.561773,1046.1462 c 0.346319,2.8119 -0.474068,4.7046 -2.353925,4.4643 -2.165461,-0.2768 -2.918704,-1.5045 -2.353925,-4.4643 0.46214,-2.4218 1.180157,3.3013 2.480194,3.3013 1.300037,0 1.926268,-5.7483 2.227656,-3.3013 z"
             style="fill:#803300;fill-opacity:1;fill-rule:nonzero;stroke:#000000;stroke-width:0.56585997;stroke-linecap:butt;stroke-linejoin:miter;stroke-miterlimit:4;stroke-opacity:1;stroke-dasharray:none;stroke-dashoffset:0" />
        </g>
        <g
           id="g3904"
           transform="matrix(-1.3710428,1.4787451,1.4383806,1.3285925,-1602.3514,-249.67475)"
           style="stroke-width:1.08549774;stroke-miterlimit:4;stroke-dasharray:none"
           inkscape:transform-center-x="3.1754243"
           inkscape:transform-center-y="19.976164">
          <path
             sodipodi:nodetypes="sssss"
             inkscape:connector-curvature="0"
             id="path3123"
             d="m -54.624907,1046.1462 c 0.346319,2.8119 -0.474068,4.7046 -2.353925,4.4643 -2.165461,-0.2768 -2.918704,-1.5046 -2.353925,-4.4643 0.46214,-2.4219 0.864484,-2.2546 2.164521,-2.2546 1.300037,0 2.241941,-0.1925 2.543329,2.2546 z"
             style="fill:#552200;fill-opacity:1;fill-rule:nonzero;stroke:#000000;stroke-width:0.5026989;stroke-linecap:butt;stroke-linejoin:miter;stroke-miterlimit:4;stroke-opacity:1;stroke-dasharray:none;stroke-dashoffset:0" />
          <path
             style="fill:#ff7f2a;fill-opacity:1;fill-rule:nonzero;stroke:#000000;stroke-width:0.5026989;stroke-linecap:butt;stroke-linejoin:miter;stroke-miterlimit:4;stroke-opacity:1;stroke-dasharray:none;stroke-dashoffset:0"
             d="m -54.782872,1046.2925 c 0.346319,2.8119 -0.474068,4.7046 -2.353925,4.4643 -2.165461,-0.2768 -2.918704,-1.5045 -2.353925,-4.4643 0.46214,-2.4218 1.180157,3.3013 2.480194,3.3013 1.300037,0 1.926268,-5.7483 2.227656,-3.3013 z"
             id="path3902"
             inkscape:connector-curvature="0"
             sodipodi:nodetypes="sssss" />
        </g>
      </g>
    </g>
  </g>
  <g
     inkscape:groupmode="layer"
     id="layer2"
     inkscape:label="cia"
     transform="translate(0,-962.3622)" />
  <g
     inkscape:label="glowa"
     inkscape:groupmode="layer"
     id="layer1"
     transform="translate(0,-962.3622)" />
</svg>
