<?xml version="1.0" encoding="UTF-8" standalone="no"?>
<!-- Created with Inkscape (http://www.inkscape.org/) -->

<svg
   xmlns:dc="http://purl.org/dc/elements/1.1/"
   xmlns:cc="http://creativecommons.org/ns#"
   xmlns:rdf="http://www.w3.org/1999/02/22-rdf-syntax-ns#"
   xmlns:svg="http://www.w3.org/2000/svg"
   xmlns="http://www.w3.org/2000/svg"
   xmlns:xlink="http://www.w3.org/1999/xlink"
   xmlns:sodipodi="http://sodipodi.sourceforge.net/DTD/sodipodi-0.dtd"
   xmlns:inkscape="http://www.inkscape.org/namespaces/inkscape"
   width="70"
   height="36"
   id="svg2"
   version="1.1"
   inkscape:version="0.48.3.1 r9886"
   sodipodi:docname="b2.svg">
  <defs
     id="defs4">
    <linearGradient
       inkscape:collect="always"
       id="linearGradient4149">
      <stop
         style="stop-color:#333333;stop-opacity:1"
         offset="0"
         id="stop4151" />
      <stop
         style="stop-color:#b3b3b3;stop-opacity:1"
         offset="1"
         id="stop4153" />
    </linearGradient>
    <radialGradient
       inkscape:collect="always"
       xlink:href="#linearGradient4149"
       id="radialGradient4155"
       cx="154.55334"
       cy="44.011551"
       fx="154.55334"
       fy="44.011551"
       r="1.830355"
       gradientTransform="matrix(-3.1051762e-6,-26.126342,15.014961,5.8678407e-6,-553.57149,4108.1977)"
       gradientUnits="userSpaceOnUse" />
    <radialGradient
       inkscape:collect="always"
       xlink:href="#linearGradient4149"
       id="radialGradient3934"
       gradientUnits="userSpaceOnUse"
       gradientTransform="matrix(-3.1051762e-6,-26.126342,15.014961,5.8678407e-6,-542.9631,4118.0503)"
       cx="154.55334"
       cy="44.011551"
       fx="154.55334"
       fy="44.011551"
       r="1.830355" />
    <radialGradient
       inkscape:collect="always"
       xlink:href="#linearGradient3132"
       id="radialGradient3138"
       cx="-212.85715"
       cy="850.03461"
       fx="-212.85715"
       fy="850.03461"
       r="55.005203"
       gradientTransform="matrix(-1.1599395,2.2275255,-0.94122015,-0.84863278,580.94535,2162.3675)"
       gradientUnits="userSpaceOnUse" />
    <linearGradient
       inkscape:collect="always"
       id="linearGradient3132">
      <stop
         style="stop-color:#2b0000;stop-opacity:1;"
         offset="0"
         id="stop3134" />
      <stop
         style="stop-color:#800000;stop-opacity:1"
         offset="1"
         id="stop3136" />
    </linearGradient>
    <radialGradient
       r="55.005203"
       fy="850.03461"
       fx="-212.85715"
       cy="850.03461"
       cx="-212.85715"
       gradientTransform="matrix(1.6365273,-0.80504016,-0.62347692,-0.65324097,894.8463,1417.0846)"
       gradientUnits="userSpaceOnUse"
       id="radialGradient4040"
       xlink:href="#linearGradient3132"
       inkscape:collect="always" />
  </defs>
  <sodipodi:namedview
     id="base"
     pagecolor="#ffffff"
     bordercolor="#666666"
     borderopacity="1.0"
     inkscape:pageopacity="0.0"
     inkscape:pageshadow="2"
     inkscape:zoom="5.6568542"
     inkscape:cx="42.098671"
     inkscape:cy="17.49333"
     inkscape:document-units="px"
     inkscape:current-layer="layer3"
     showgrid="false"
     inkscape:window-width="1366"
     inkscape:window-height="744"
     inkscape:window-x="0"
     inkscape:window-y="24"
     inkscape:window-maximized="1" />
  <metadata
     id="metadata7">
    <rdf:RDF>
      <cc:Work
         rdf:about="">
        <dc:format>image/svg+xml</dc:format>
        <dc:type
           rdf:resource="http://purl.org/dc/dcmitype/StillImage" />
        <dc:title />
      </cc:Work>
    </rdf:RDF>
  </metadata>
  <g
     inkscape:groupmode="layer"
     id="layer3"
     inkscape:label="mie"
     transform="translate(0,-1016.3622)" />
  <g
     inkscape:groupmode="layer"
     id="layer2"
     inkscape:label="cia"
     transform="translate(0,-1016.3622)" />
  <g
     inkscape:label="glowa"
     inkscape:groupmode="layer"
     id="layer1"
     transform="translate(0,-1016.3622)">
    <path
       style="fill:url(#radialGradient4040);fill-opacity:1;stroke:#000000;stroke-width:0.99999982px;stroke-linecap:butt;stroke-linejoin:miter;stroke-opacity:1;display:inline"
       d="m 22.62962,1047.1435 c 9.209857,1.421 18.513349,0.9326 27.124892,-1.2242 8.017113,-2.008 20.88857,-7.1398 17.985405,-13.1479 -5.662474,-11.7181 -13.641724,-10.5986 -16.05685,-10.8018 -7.180734,-0.6041 -8.501836,-3.7412 -23.273137,1.3246 -11.177196,3.8332 -19.1950478,11.3629 -20.0415838,19.4384 -0.3909007,3.7283 8.9309688,3.5885 14.2612738,4.4109 z"
       id="path3114"
       inkscape:connector-curvature="0"
       sodipodi:nodetypes="sssssss"
       inkscape:export-filename="/home/azras/Pulpit/graf/andria/deadPlayer.png"
       inkscape:export-xdpi="90"
       inkscape:export-ydpi="90" />
    <path
       style="fill:#552200;stroke:#000000;stroke-width:0.99999994px;stroke-linecap:butt;stroke-linejoin:miter;stroke-opacity:1"
       d="m 42.952767,1027.1327 c 5.645019,0.3479 13.185626,-0.1818 21.867076,1.2506 1.827805,0.1103 2.094777,-0.6617 4.096654,0.4366 0.514091,1.7697 0.631185,3.2419 -0.349437,3.8919 -7.073983,-0.06 -14.913421,0.9133 -20.918314,0.5771 -0.393024,0.7671 -2.492604,1.0422 -0.66406,2.4529 9.290471,-1.2611 14.841206,-0.5797 21.48735,-0.9059 0.234928,1.2515 1.540304,1.8764 -0.426731,4.4168 -8.86882,0.3502 -18.015971,0.9609 -27.179651,1.5871 -0.29837,-3.7626 -0.121158,-7.9112 2.087113,-13.7071 z"
       id="path4064"
       inkscape:connector-curvature="0"
       sodipodi:nodetypes="cccccccccc"
       inkscape:export-filename="/home/azras/Pulpit/graf/andria/deadPlayer.png"
       inkscape:export-xdpi="90"
       inkscape:export-ydpi="90" />
    <path
       style="fill:#803300;stroke:#000000;stroke-width:0.99999994px;stroke-linecap:butt;stroke-linejoin:miter;stroke-opacity:1"
       d="m 15.061586,1030.0185 c 0.02678,-0.8755 0.06095,-1.8008 0.189772,-2.7896 6.484261,-4.9451 16.963598,-3.3047 23.799974,-4.6801 3.23839,3.9711 3.464822,5.2623 0.693519,3.8864 l -14.67471,2.0442 11.342772,-1.2238 c 2.135871,0.2701 3.897464,-0.3031 5.970632,-0.027 1.749034,4.4227 0.675235,9.4179 0,14.3323 l -5.075429,1.6353 c -5.768395,-0.087 -4.468439,0.3731 -10.577778,-1.4429 -2.825696,0.7441 6.680499,1.7195 10.233512,1.6889 2.812859,-1.9718 5.540115,-0.4697 2.154063,2.8683 -5.54547,-0.9942 -15.475072,1.0174 -21.020543,-2.3449 -0.626106,-1.2646 -2.077601,-1.398 -2.703707,-5.1462 -0.149693,-3.7814 -0.413525,-6.1748 -0.332077,-8.8013 z"
       id="path4059"
       inkscape:connector-curvature="0"
       sodipodi:nodetypes="ccccccccccccccsc"
       inkscape:export-filename="/home/azras/Pulpit/graf/andria/deadPlayer.png"
       inkscape:export-xdpi="90"
       inkscape:export-ydpi="90" />
    <path
       style="fill:#000000;fill-opacity:1;stroke:#000000;stroke-width:0.99999994px;stroke-linecap:butt;stroke-linejoin:miter;stroke-opacity:1"
       d="m 22.409837,1038.112 c -2.465824,-4.8751 -1.242332,-8.6841 -0.569221,-13.8222 l -3.415233,2.5517 c -0.986995,-0.6358 -2.014159,-1.0468 -2.656334,-3.6151 l -3.035783,0.8506 c -1.745617,0.3028 -3.1540788,-0.4024 -4.363904,-1.7011 -2.2105791,-0.1384 -2.3360774,2.06 -2.8460121,3.8277 l -2.2768836,1.4885 1.7076627,2.1265 -1.7076627,2.7645 c -0.2667876,2.1742 -1.3229491,3.0213 -2.27679116,4.0404 2.42639176,1.1051 2.44227526,3.0207 3.22546196,4.6784 l 2.4665622,1.2758 c 0.8856908,1.673 0.4919273,2.4857 0.5692209,3.615 l 3.0357838,1.7014 c 0,0 2.087113,-3.8278 2.656333,-2.7645 0.569222,1.0631 1.517892,5.1036 2.656241,3.4024 1.138442,-1.7013 2.276884,-3.6151 2.276884,-3.6151 l 2.087113,-1.4885 1.897341,0.6379 2.276791,-2.3392 z"
       id="path3255"
       inkscape:connector-curvature="0"
       sodipodi:nodetypes="cccccccccccccccssccccc"
       inkscape:export-filename="/home/azras/Pulpit/graf/andria/deadPlayer.png"
       inkscape:export-xdpi="90"
       inkscape:export-ydpi="90" />
  </g>
</svg>
